# xmcd
#
# Track frame offsets:
#	150
#	18761
#	35894
#	49035
#	71728
#	92642
#	111358
#	132473
#	148524
#	165543
#	181714
#	198261
#	210753
#	224766
#	243126
#	259326
#	271661
#	283473
#	304336
#	328435
#
# Disc length: 4677 seconds
#
# Revision: 1
# Processed by: cddbd v1.5.1PL2 Copyright (c) Steve Scherf et al.
# Submitted via: audiograbber 1.83.01
#
DISCID=35124314
DTITLE=Blues-sur-Seine - Festival 2000
DYEAR=2000
DGENRE=Blues
TTITLE0=Larry Garner - Keep the money
TTITLE1=Magic Slim - Tell me baby
TTITLE2=Franck Ash - things
TTITLE3=Miguel M - Spanis boy
TTITLE4=Swampini - Swamp buggy boogie blues
TTITLE5=Catfish Keith - Pony run
TTITLE6=The bone's project - trouble on your mind
TTITLE7=Tao Ravao, Vincent Butcher - Miss Affuwa
TTITLE8=Les Marvellous Pig Noise - Sugar Cane
TTITLE9=Nico Wayne Toussaint - Cadillac babe
TTITLE10=Amar Sundy - Oualache
TTITLE11=Chris Lancry - Lightnin Hopkins
TTITLE12=Lance and Donna - Long gone blues
TTITLE13=Karim Albert Kook - Loin du Mississipi
TTITLE14=The Blues Cousins - Nobody Knows
TTITLE15=Blues Fools - Fools in the blues
TTITLE16=Greg Szlapczynski - Blues bend booggie
TTITLE17=Malted Milk - Jumpin Jack Swing
TTITLE18=A.E.K. and the Wanted Band - Gratter fort de monnaie
TTITLE19=Coup d'Blues - Love in vain
EXTD=
EXTT0=
EXTT1=
EXTT2=
EXTT3=
EXTT4=
EXTT5=
EXTT6=
EXTT7=
EXTT8=
EXTT9=
EXTT10=
EXTT11=
EXTT12=
EXTT13=
EXTT14=
EXTT15=
EXTT16=
EXTT17=
EXTT18=
EXTT19=
PLAYORDER=
